<svg width="24" height="24" viewBox="0 0 24 24" fill="none" xmlns="http://www.w3.org/2000/svg">
<path fill-rule="evenodd" clip-rule="evenodd" d="M2.06854 6C2.06854 5.44772 2.51486 5 3.06543 5H21.0094C21.5599 5 22.0062 5.44772 22.0062 6C22.0062 6.55228 21.5599 7 21.0094 7H3.06543C2.51486 7 2.06854 6.55228 2.06854 6ZM2.06854 12C2.06854 11.4477 2.51486 11 3.06543 11H21.0094C21.5599 11 22.0062 11.4477 22.0062 12C22.0062 12.5523 21.5599 13 21.0094 13H3.06543C2.51486 13 2.06854 12.5523 2.06854 12ZM2.06854 18C2.06854 17.4477 2.51486 17 3.06543 17H21.0094C21.5599 17 22.0062 17.4477 22.0062 18C22.0062 18.5523 21.5599 19 21.0094 19H3.06543C2.51486 19 2.06854 18.5523 2.06854 18Z" fill="black"/>
</svg>
