<svg width="15" height="20" viewBox="0 0 15 20" fill="none" xmlns="http://www.w3.org/2000/svg">
<path d="M6.2306 13.1171C6.15638 13.4179 6.08997 13.6835 6.02357 13.9492C5.94935 14.2538 5.87904 14.5585 5.80872 14.8632C5.72279 15.2343 5.65638 15.6093 5.547 15.9687C5.39075 16.4804 5.2345 16.9921 5.02357 17.4804C4.82825 17.9296 4.57044 18.3554 4.32435 18.7812C4.12122 19.1288 3.89075 19.4648 3.66419 19.8007C3.62904 19.8515 3.53138 19.9023 3.48841 19.8867C3.43372 19.8671 3.37122 19.7812 3.36341 19.7187C3.21497 18.5351 3.13685 17.3437 3.2931 16.1562C3.3556 15.6757 3.4845 15.207 3.58216 14.7304C3.64466 14.4179 3.70716 14.1015 3.77357 13.7851C3.8556 13.3984 3.94153 13.0078 4.02747 12.621C4.15247 12.0507 4.28138 11.4843 4.41028 10.914C4.51575 10.457 4.61732 9.99604 4.7306 9.539C4.78528 9.32025 4.672 9.14057 4.62122 8.94525C4.45325 8.27338 4.34779 7.60541 4.47279 6.90619C4.56263 6.40229 4.69544 5.92182 4.9806 5.49604C5.35169 4.94135 5.85169 4.57807 6.55872 4.61713C7.16419 4.65229 7.58607 5.04682 7.74232 5.60541C7.9181 6.2226 7.83997 6.83979 7.67982 7.44916C7.50794 8.11322 7.32435 8.76947 7.15638 9.43354C7.05091 9.8476 6.89857 10.2617 6.87513 10.6835C6.83997 11.3124 7.08607 11.8632 7.63685 12.2187C8.07435 12.4999 8.53919 12.5546 9.05482 12.4296C9.73841 12.2617 10.2111 11.8359 10.6095 11.2968C11.0822 10.6601 11.3478 9.93744 11.5548 9.17572C11.8087 8.23041 11.9064 7.27729 11.8868 6.30463C11.8712 5.40619 11.6329 4.57416 11.1251 3.83197C10.7423 3.27729 10.2384 2.86322 9.61341 2.58979C9.21497 2.414 8.82044 2.26166 8.38294 2.24213C7.91028 2.2226 7.43372 2.14057 6.96888 2.18744C5.56654 2.33979 4.40638 2.95697 3.53138 4.08197C3.18372 4.53119 2.90638 5.01947 2.72278 5.54682C2.44153 6.35932 2.31653 7.20307 2.39857 8.06635C2.45716 8.67182 2.63294 9.25385 3.03138 9.7226C3.30482 10.0429 3.25403 10.3554 3.16028 10.6992C3.1095 10.8788 3.06263 11.0585 3.02357 11.2421C2.95716 11.5703 2.77357 11.7382 2.39466 11.5546C1.63685 11.1874 1.15638 10.582 0.820441 9.83197C0.351691 8.78119 0.26966 7.67182 0.379035 6.55463C0.507941 5.289 0.996222 4.14447 1.74622 3.11713C2.28919 2.37494 2.96497 1.77338 3.75403 1.30072C4.37122 0.929629 5.02747 0.66791 5.72279 0.488223C6.62513 0.253848 7.53919 0.183535 8.45716 0.257754C9.14466 0.312442 9.80872 0.476504 10.4533 0.742129C11.5665 1.20307 12.4767 1.9101 13.1876 2.87494C13.6095 3.44916 13.9337 4.07807 14.1447 4.76557C14.2697 5.17182 14.3751 5.57807 14.3868 6.00385C14.4025 6.48432 14.4572 6.96479 14.4298 7.43744C14.4025 7.94135 14.3009 8.44525 14.2228 8.94525C14.0939 9.77338 13.8165 10.5546 13.4454 11.3007C13.1251 11.9413 12.7228 12.5234 12.2033 13.0273C11.6798 13.5351 11.0783 13.914 10.3908 14.164C9.73841 14.4023 9.07044 14.4882 8.39075 14.4062C7.58216 14.3046 6.89857 13.9413 6.38685 13.2851C6.35169 13.246 6.297 13.1913 6.2306 13.1171Z" fill="#555555"/>
</svg>
